<svg width="1280" height="760" viewBox="0 0 1280 760" fill="none" xmlns="http://www.w3.org/2000/svg">
  <rect width="1280" height="760" fill="#0e0e10"/>
  <rect x="24" y="24" width="220" height="712" rx="12" fill="#16161a" stroke="rgba(255,255,255,0.08)"/>
  <text x="48" y="68" fill="#7c6af7" font-family="Arial, sans-serif" font-size="26" font-weight="800">Focus</text>
  <text x="124" y="68" fill="#f0f0f0" font-family="Arial, sans-serif" font-size="26" font-weight="800">Flow</text>
  <text x="48" y="95" fill="#606070" font-family="Arial, sans-serif" font-size="11" letter-spacing="2">v4.3</text>
  <g fill="#a0a0b0" font-family="Arial, sans-serif" font-size="16">
    <text x="52" y="158">Temporizadores</text>
    <text x="52" y="205">Tarefas</text>
    <text x="52" y="252">Matérias</text>
    <text x="52" y="299">Wiki Pessoal</text>
    <text x="52" y="346">Histórico</text>
    <text x="52" y="393">Dashboard</text>
  </g>
  <rect x="276" y="40" width="960" height="56" rx="12" fill="#16161a" stroke="rgba(255,255,255,0.08)"/>
  <text x="300" y="76" fill="#f0f0f0" font-family="Arial, sans-serif" font-size="25" font-weight="800">Temporizadores</text>
  <rect x="276" y="128" width="450" height="238" rx="12" fill="#16161a" stroke="rgba(255,255,255,0.08)"/>
  <text x="306" y="166" fill="#606070" font-family="Arial, sans-serif" font-size="13" font-weight="700" letter-spacing="1">CRONÔMETRO LIVRE</text>
  <text x="386" y="260" fill="#7c6af7" font-family="monospace" font-size="58">00:00:00</text>
  <rect x="422" y="300" width="88" height="38" rx="8" fill="#7c6af7"/>
  <rect x="522" y="300" width="92" height="38" rx="8" fill="rgba(224,82,82,0.1)" stroke="rgba(224,82,82,0.3)"/>
  <text x="443" y="324" fill="#ffffff" font-family="Arial, sans-serif" font-size="14" font-weight="700">Iniciar</text>
  <text x="543" y="324" fill="#e05252" font-family="Arial, sans-serif" font-size="14" font-weight="700">Resetar</text>
  <rect x="758" y="128" width="450" height="238" rx="12" fill="#16161a" stroke="rgba(255,255,255,0.08)"/>
  <text x="788" y="166" fill="#606070" font-family="Arial, sans-serif" font-size="13" font-weight="700" letter-spacing="1">POMODORO</text>
  <circle cx="983" cy="238" r="68" stroke="#26262e" stroke-width="10"/>
  <path d="M983 170a68 68 0 0 1 58 103" stroke="#7c6af7" stroke-width="10" stroke-linecap="round"/>
  <text x="928" y="248" fill="#f0f0f0" font-family="monospace" font-size="38">25:00</text>
  <rect x="918" y="316" width="88" height="38" rx="8" fill="#7c6af7"/>
  <rect x="1018" y="316" width="92" height="38" rx="8" fill="rgba(224,82,82,0.1)" stroke="rgba(224,82,82,0.3)"/>
  <rect x="276" y="398" width="450" height="238" rx="12" fill="#16161a" stroke="rgba(255,255,255,0.08)"/>
  <text x="306" y="436" fill="#606070" font-family="Arial, sans-serif" font-size="13" font-weight="700" letter-spacing="1">SESSÃO DE ESTUDO</text>
  <text x="386" y="525" fill="#3ecf8e" font-family="monospace" font-size="58">00:00:00</text>
  <rect x="758" y="398" width="450" height="238" rx="12" fill="#16161a" stroke="rgba(255,255,255,0.08)"/>
  <text x="788" y="436" fill="#606070" font-family="Arial, sans-serif" font-size="13" font-weight="700" letter-spacing="1">XP & NÍVEL</text>
  <text x="788" y="520" fill="#f0f0f0" font-family="monospace" font-size="58">1</text>
  <rect x="788" y="548" width="360" height="10" rx="5" fill="#26262e"/>
  <rect x="788" y="548" width="116" height="10" rx="5" fill="#7c6af7"/>
</svg>
